<svg width="1584" height="396" viewBox="0 0 1584 396" fill="none" xmlns="http://www.w3.org/2000/svg">
<rect width="1584" height="396" fill="#F5F5F5"/>
<g id="Awesome banner" clip-path="url(#clip0_0_1)">
<rect width="1584" height="396" fill="url(#paint0_linear_0_1)"/>
<ellipse id="Ellipse 2" cx="323" cy="64" rx="285" ry="288" fill="url(#paint1_linear_0_1)" fill-opacity="0.1"/>
<g id="copyright">
<path d="M75.95 334.52L72.30 334.52L72.30 311.16L77.20 311.16L83.70 330.04Q83.60 329.02 83.50 327.62Q83.41 326.23 83.33 324.79Q83.25 323.35 83.25 322.23L83.25 311.16L86.90 311.16L86.90 334.52L82 334.52L75.57 315.64Q75.63 316.57 75.73 317.88Q75.82 319.19 75.89 320.57Q75.95 321.94 75.95 323.10L75.95 334.52M98.80 334.84Q96.46 334.84 94.67 333.96Q92.88 333.08 91.89 331.53Q90.90 329.98 90.90 327.93Q90.90 325.78 92.13 324.18Q93.36 322.58 95.34 322.17L95.34 322.10Q93.65 321.75 92.61 320.38Q91.57 319 91.57 317.11Q91.57 315.26 92.48 313.85Q93.39 312.44 95.02 311.64Q96.66 310.84 98.80 310.84Q100.94 310.84 102.59 311.64Q104.24 312.44 105.15 313.85Q106.06 315.26 106.06 317.11Q106.06 319 105.01 320.38Q103.95 321.75 102.26 322.10L102.26 322.17Q104.24 322.58 105.47 324.18Q106.70 325.78 106.70 327.93Q106.70 329.98 105.71 331.53Q104.72 333.08 102.93 333.96Q101.14 334.84 98.80 334.84M98.80 320.73Q100.30 320.73 101.23 319.82Q102.16 318.90 102.16 317.46Q102.16 315.99 101.23 315.08Q100.30 314.17 98.80 314.17Q97.30 314.17 96.37 315.08Q95.44 315.99 95.44 317.46Q95.44 318.90 96.37 319.82Q97.30 320.73 98.80 320.73M98.80 331.45Q100.56 331.45 101.68 330.42Q102.80 329.40 102.80 327.74Q102.80 326.04 101.68 325Q100.56 323.96 98.80 323.96Q97.04 323.96 95.92 325Q94.80 326.04 94.80 327.74Q94.80 329.40 95.92 330.42Q97.04 331.45 98.80 331.45M114.35 334.52L110.70 334.52L110.70 311.16L115.60 311.16L122.10 330.04Q122 329.02 121.90 327.62Q121.81 326.23 121.73 324.79Q121.65 323.35 121.65 322.23L121.65 311.16L125.30 311.16L125.30 334.52L120.40 334.52L113.97 315.64Q114.03 316.57 114.13 317.88Q114.22 319.19 114.29 320.57Q114.35 321.94 114.35 323.10" fill="white" fill-opacity="0.9"/>
<path d="M161.48 325.24L151.24 325.24L151.24 322.68L161.48 322.68" fill="white" fill-opacity="0.9"/>
<path d="M195.02 334.84Q191.82 334.84 189.96 333.05Q188.11 331.26 188.11 328.12L188.11 317.56Q188.11 314.42 189.96 312.63Q191.82 310.84 195.02 310.84Q198.15 310.84 200.01 312.65Q201.87 314.46 201.87 317.56L198.99 317.56Q198.99 315.58 197.95 314.50Q196.91 313.43 195.02 313.43Q193.13 313.43 192.06 314.50Q190.99 315.58 190.99 317.56L190.99 328.12Q190.99 330.10 192.06 331.18Q193.13 332.25 195.02 332.25Q196.91 332.25 197.95 331.18Q198.99 330.10 198.99 328.12L201.87 328.12Q201.87 331.22 200.01 333.03Q198.15 334.84 195.02 334.84" fill="white" fill-opacity="0.9"/>
<path d="M213.96 334.84Q210.83 334.84 209 333.02Q207.18 331.19 207.18 327.80L207.18 317.88Q207.18 314.49 209 312.66Q210.83 310.84 213.96 310.84Q217.10 310.84 218.92 312.66Q220.75 314.49 220.75 317.85L220.75 327.80Q220.75 331.19 218.92 333.02Q217.10 334.84 213.96 334.84M213.96 332.25Q215.85 332.25 216.86 331.18Q217.87 330.10 217.87 328.12L217.87 317.56Q217.87 315.58 216.86 314.50Q215.85 313.43 213.96 313.43Q212.11 313.43 211.08 314.50Q210.06 315.58 210.06 317.56L210.06 328.12Q210.06 330.10 211.08 331.18Q212.11 332.25 213.96 332.25" fill="white" fill-opacity="0.9"/>
<path d="M228.65 334.52L225.87 334.52L225.87 311.16L230.12 311.16L233.10 321.27L236.20 311.16L240.46 311.16L240.46 334.52L237.67 334.52L237.67 323.48Q237.67 321.91 237.72 319.88Q237.77 317.85 237.87 315.77Q237.96 313.69 238.09 312.02L234.31 324.09L231.82 324.09L228.20 312.31Q228.46 314.68 228.55 317.50Q228.65 320.31 228.65 323.48" fill="white" fill-opacity="0.9"/>
<path d="M247.85 334.52L245.07 334.52L245.07 311.16L249.32 311.16L252.30 321.27L255.40 311.16L259.66 311.16L259.66 334.52L256.87 334.52L256.87 323.48Q256.87 321.91 256.92 319.88Q256.97 317.85 257.07 315.77Q257.16 313.69 257.29 312.02L253.51 324.09L251.02 324.09L247.40 312.31Q247.66 314.68 247.75 317.50Q247.85 320.31 247.85 323.48" fill="white" fill-opacity="0.9"/>
<path d="M271.56 334.84Q268.30 334.84 266.57 333.03Q264.84 331.22 264.84 328.12L264.84 311.16L267.72 311.16L267.72 328.12Q267.72 330.04 268.67 331.16Q269.61 332.28 271.56 332.28Q273.48 332.28 274.44 331.16Q275.40 330.04 275.40 328.12L275.40 311.16L278.28 311.16L278.28 328.12Q278.28 331.26 276.57 333.05Q274.86 334.84 271.56 334.84" fill="white" fill-opacity="0.9"/>
<path d="M286.83 334.52L284.04 334.52L284.04 311.16L287.88 311.16L295.02 331.16Q294.95 330.36 294.87 329.19Q294.79 328.02 294.75 326.73Q294.70 325.43 294.70 324.28L294.70 311.16L297.48 311.16L297.48 334.52L293.64 334.52L286.54 314.52Q286.60 315.29 286.67 316.46Q286.73 317.62 286.78 318.92Q286.83 320.22 286.83 321.40" fill="white" fill-opacity="0.9"/>
<path d="M316.20 334.52L303.72 334.52L303.72 331.90L308.49 331.90L308.49 313.78L303.72 313.78L303.72 311.16L316.20 311.16L316.20 313.78L311.43 313.78L311.43 331.90L316.20 331.90" fill="white" fill-opacity="0.9"/>
<path d="M330.60 334.52L327.72 334.52L327.72 313.78L321.32 313.78L321.32 311.16L337 311.16L337 313.78L330.60 313.78" fill="white" fill-opacity="0.9"/>
<path d="M349.80 334.52L346.92 334.52L346.92 325.78L339.88 311.16L342.95 311.16L347.50 320.76Q347.88 321.56 348.11 322.12Q348.33 322.68 348.39 322.94Q348.46 322.68 348.70 322.12Q348.94 321.56 349.32 320.76L353.87 311.16L356.84 311.16L349.80 325.78" fill="white" fill-opacity="0.9"/>
<path d="M382.83 334.52L380.04 334.52L380.04 311.16L383.88 311.16L391.02 331.16Q390.95 330.36 390.87 329.19Q390.79 328.02 390.75 326.73Q390.70 325.43 390.70 324.28L390.70 311.16L393.48 311.16L393.48 334.52L389.64 334.52L382.54 314.52Q382.60 315.29 382.67 316.46Q382.73 317.62 382.78 318.92Q382.83 320.22 382.83 321.40" fill="white" fill-opacity="0.9"/>
<path d="M405.96 334.84Q402.83 334.84 401 333.02Q399.18 331.19 399.18 327.80L399.18 317.88Q399.18 314.49 401 312.66Q402.83 310.84 405.96 310.84Q409.10 310.84 410.92 312.66Q412.75 314.49 412.75 317.85L412.75 327.80Q412.75 331.19 410.92 333.02Q409.10 334.84 405.96 334.84M405.96 332.25Q407.85 332.25 408.86 331.18Q409.87 330.10 409.87 328.12L409.87 317.56Q409.87 315.58 408.86 314.50Q407.85 313.43 405.96 313.43Q404.11 313.43 403.08 314.50Q402.06 315.58 402.06 317.56L402.06 328.12Q402.06 330.10 403.08 331.18Q404.11 332.25 405.96 332.25" fill="white" fill-opacity="0.9"/>
<path d="M424.55 334.52L418.51 334.52L418.51 311.16L424.55 311.16Q426.83 311.16 428.47 312.02Q430.12 312.89 431.03 314.46Q431.95 316.02 431.95 318.17L431.95 327.48Q431.95 329.62 431.03 331.21Q430.12 332.79 428.47 333.66Q426.83 334.52 424.55 334.52M421.39 313.72L421.39 331.96L424.55 331.96Q426.67 331.96 427.87 330.78Q429.07 329.59 429.07 327.48L429.07 318.17Q429.07 316.09 427.87 314.90Q426.67 313.72 424.55 313.72" fill="white" fill-opacity="0.9"/>
<path d="M451.40 334.52L437.96 334.52L437.96 311.16L451.40 311.16L451.40 313.78L440.81 313.78L440.81 321.02L450.28 321.02L450.28 323.58L440.81 323.58L440.81 331.90L451.40 331.90" fill="white" fill-opacity="0.9"/>
<path d="M463.69 334.84Q460.30 334.84 458.28 333.05Q456.27 331.26 456.27 328.12L459.15 328.12Q459.15 330.07 460.39 331.18Q461.64 332.28 463.69 332.28Q465.67 332.28 466.86 331.13Q468.04 329.98 468.04 328.12Q468.04 326.71 467.29 325.67Q466.54 324.63 465.13 324.25L461.58 323.26Q459.37 322.62 458.11 320.97Q456.84 319.32 456.84 317.08Q456.84 315.22 457.67 313.82Q458.51 312.41 460.01 311.62Q461.51 310.84 463.47 310.84Q465.45 310.84 466.97 311.62Q468.49 312.41 469.35 313.80Q470.22 315.19 470.22 317.02L467.34 317.02Q467.34 315.42 466.25 314.41Q465.16 313.40 463.47 313.40Q461.77 313.40 460.71 314.41Q459.66 315.42 459.66 317.02Q459.66 318.30 460.35 319.21Q461.03 320.12 462.28 320.47L465.93 321.50Q468.27 322.14 469.56 323.91Q470.86 325.69 470.86 328.12Q470.86 331.19 468.91 333.02Q466.95 334.84 463.69 334.84" fill="white" fill-opacity="0.9"/>
</g>
<path d="M77.30 197.88Q74.90 197.88 73.50 196.54Q72.11 195.19 72.11 192.84L72.11 184.92Q72.11 182.57 73.50 181.22Q74.90 179.88 77.30 179.88Q79.65 179.88 81.04 181.24Q82.43 182.59 82.43 184.92L80.27 184.92Q80.27 183.43 79.49 182.63Q78.71 181.82 77.30 181.82Q75.88 181.82 75.08 182.62Q74.27 183.41 74.27 184.90L74.27 192.84Q74.27 194.33 75.08 195.14Q75.88 195.96 77.30 195.96Q78.71 195.96 79.49 195.14Q80.27 194.33 80.27 192.84L80.27 190.44L76.72 190.44L76.72 188.47L82.43 188.47L82.43 192.84Q82.43 195.17 81.04 196.52Q79.65 197.88 77.30 197.88" fill="white" fill-opacity="0.7"/>
<path d="M91.60 197.83Q89.22 197.83 87.82 196.44Q86.42 195.05 86.42 192.55L86.42 189.53Q86.42 187.01 87.81 185.63Q89.20 184.25 91.60 184.25Q94 184.25 95.39 185.63Q96.78 187.01 96.78 189.53L96.78 192.55Q96.78 195.05 95.38 196.44Q93.98 197.83 91.60 197.83M91.60 195.91Q93.02 195.91 93.82 195.12Q94.62 194.33 94.62 192.79L94.62 189.29Q94.62 187.75 93.82 186.96Q93.02 186.17 91.60 186.17Q90.21 186.17 89.39 186.96Q88.58 187.75 88.58 189.29L88.58 192.79Q88.58 194.33 89.39 195.12Q90.21 195.91 91.60 195.91" fill="white" fill-opacity="0.7"/>
<path d="M105.54 197.64L101.01 197.64L101.01 180.12L105.54 180.12Q107.25 180.12 108.48 180.77Q109.72 181.42 110.40 182.59Q111.09 183.77 111.09 185.38L111.09 192.36Q111.09 193.97 110.40 195.16Q109.72 196.34 108.48 196.99Q107.25 197.64 105.54 197.64M103.17 182.04L103.17 195.72L105.54 195.72Q107.13 195.72 108.03 194.83Q108.93 193.94 108.93 192.36L108.93 185.38Q108.93 183.82 108.03 182.93Q107.13 182.04 105.54 182.04" fill="white" fill-opacity="0.7"/>
<path d="M126.52 197.64L115.24 197.64L115.24 195.67L119.92 195.67L119.92 186.41L115.72 186.41L115.72 184.44L122.08 184.44L122.08 195.67L126.52 195.67L126.52 197.64M120.76 182.06Q119.97 182.06 119.51 181.66Q119.06 181.25 119.06 180.55Q119.06 179.83 119.51 179.41Q119.97 178.99 120.76 178.99Q121.55 178.99 122.01 179.41Q122.46 179.83 122.46 180.55Q122.46 181.25 122.01 181.66Q121.55 182.06 120.76 182.06" fill="white" fill-opacity="0.7"/>
<path d="M135.16 201.96L131.46 201.96L131.46 199.99L135.18 199.99Q136.31 199.99 136.96 199.36Q137.61 198.72 137.61 197.64L137.61 196.44L137.66 194.28L137.58 194.28Q137.39 195.46 136.46 196.09Q135.52 196.73 134.10 196.73Q132.06 196.73 130.89 195.43Q129.71 194.14 129.71 191.88L129.71 189.10Q129.71 186.84 130.89 185.52Q132.06 184.20 134.10 184.20Q135.52 184.20 136.46 184.87Q137.39 185.54 137.58 186.72L137.63 186.72L137.63 184.44L139.77 184.44L139.77 197.64Q139.77 199.63 138.53 200.80Q137.30 201.96 135.16 201.96M134.75 194.93Q136.10 194.93 136.86 194.09Q137.63 193.25 137.63 191.76L137.63 189.24Q137.63 187.75 136.86 186.91Q136.10 186.07 134.75 186.07Q133.38 186.07 132.63 186.86Q131.87 187.66 131.87 189L131.87 192Q131.87 193.34 132.63 194.14Q133.38 194.93 134.75 194.93" fill="white" fill-opacity="0.7"/>
<path d="M155.32 197.64L144.04 197.64L144.04 195.67L148.72 195.67L148.72 186.41L144.52 186.41L144.52 184.44L150.88 184.44L150.88 195.67L155.32 195.67L155.32 197.64M149.56 182.06Q148.77 182.06 148.31 181.66Q147.86 181.25 147.86 180.55Q147.86 179.83 148.31 179.41Q148.77 178.99 149.56 178.99Q150.35 178.99 150.81 179.41Q151.26 179.83 151.26 180.55Q151.26 181.25 150.81 181.66Q150.35 182.06 149.56 182.06" fill="white" fill-opacity="0.7"/>
<path d="M168.76 197.64L164.92 197.64Q163.29 197.64 162.30 196.69Q161.32 195.74 161.32 194.16L161.32 186.41L157.53 186.41L157.53 184.44L161.32 184.44L161.32 180.72L163.48 180.72L163.48 184.44L168.88 184.44L168.88 186.41L163.48 186.41L163.48 194.16Q163.48 194.83 163.88 195.25Q164.27 195.67 164.92 195.67L168.76 195.67" fill="white" fill-opacity="0.7"/>
<path d="M193.82 197.64L190.98 197.64L186.50 184.44L188.82 184.44L191.70 193.32Q191.97 194.11 192.16 194.84Q192.35 195.58 192.45 195.98Q192.57 195.58 192.74 194.84Q192.90 194.11 193.14 193.32L196.02 184.44L198.30 184.44" fill="white" fill-opacity="0.7"/>
<path d="M206.80 197.88Q204.47 197.88 203.04 196.48Q201.62 195.07 201.62 192.60L201.62 189.48Q201.62 187.01 203.04 185.60Q204.47 184.20 206.80 184.20Q208.36 184.20 209.52 184.82Q210.69 185.45 211.34 186.58Q211.98 187.70 211.98 189.24L211.98 191.59L203.73 191.59L203.73 192.84Q203.73 194.30 204.57 195.16Q205.41 196.01 206.80 196.01QNaN 196.01 208.78 195.54Q209.56 195.07 209.73 194.28L211.89 194.28Q211.67 195.94 210.28 196.91Q208.89 197.88 206.80 197.88M203.73 189.24L203.73 189.91L209.87 189.91L209.87 189.24Q209.87 187.68 209.07 186.83Q208.26 185.98 206.80 185.98Q205.34 185.98 204.53 186.83Q203.73 187.68 203.73 189.24" fill="white" fill-opacity="0.7"/>
<path d="M218.37 197.64L216.21 197.64L216.21 180.12L218.37 180.12L218.37 186.96L218.39 186.96Q218.56 185.64 219.47 184.92Q220.38 184.20 221.90 184.20Q223.89 184.20 225.06 185.42Q226.24 186.65 226.24 188.76L226.24 197.64L224.08 197.64L224.08 189.12Q224.08 187.63 223.32 186.83Q222.57 186.02 221.27 186.02Q219.93 186.02 219.15 186.86Q218.37 187.70 218.37 189.24" fill="white" fill-opacity="0.7"/>
<path d="M241.72 197.64L230.44 197.64L230.44 195.67L235.12 195.67L235.12 186.41L230.92 186.41L230.92 184.44L237.28 184.44L237.28 195.67L241.72 195.67L241.72 197.64M235.96 182.06Q235.17 182.06 234.71 181.66Q234.26 181.25 234.26 180.55Q234.26 179.83 234.71 179.41Q235.17 178.99 235.96 178.99Q236.75 178.99 237.21 179.41Q237.66 179.83 237.66 180.55Q237.66 181.25 237.21 181.66Q236.75 182.06 235.96 182.06" fill="white" fill-opacity="0.7"/>
<path d="M250.19 197.88Q247.79 197.88 246.35 196.54Q244.91 195.19 244.91 192.84L244.91 189.24Q244.91 186.89 246.35 185.54Q247.79 184.20 250.19 184.20Q252.47 184.20 253.88 185.42Q255.28 186.65 255.35 188.76L253.19 188.76Q253.12 187.49 252.33 186.80Q251.54 186.12 250.19 186.12Q248.78 186.12 247.92 186.92Q247.07 187.73 247.07 189.22L247.07 192.84Q247.07 194.33 247.92 195.14Q248.78 195.96 250.19 195.96Q251.54 195.96 252.33 195.26Q253.12 194.57 253.19 193.32L255.35 193.32Q255.28 195.43 253.88 196.66Q252.47 197.88 250.19 197.88" fill="white" fill-opacity="0.7"/>
<path d="M270.40 197.64L266.32 197.64Q264.57 197.64 263.52 196.62Q262.48 195.60 262.48 193.92L262.48 182.09L257.92 182.09L257.92 180.12L264.64 180.12L264.64 193.92Q264.64 194.74 265.10 195.20Q265.55 195.67 266.32 195.67L270.40 195.67" fill="white" fill-opacity="0.7"/>
<path d="M278.80 197.88Q276.47 197.88 275.04 196.48Q273.62 195.07 273.62 192.60L273.62 189.48Q273.62 187.01 275.04 185.60Q276.47 184.20 278.80 184.20Q280.36 184.20 281.52 184.82Q282.69 185.45 283.34 186.58Q283.98 187.70 283.98 189.24L283.98 191.59L275.73 191.59L275.73 192.84Q275.73 194.30 276.57 195.16Q277.41 196.01 278.80 196.01Q280 196.01 280.78 195.54Q281.56 195.07 281.73 194.28L283.89 194.28Q283.67 195.94 282.28 196.91Q280.89 197.88 278.80 197.88M275.73 189.24L275.73 189.91L281.87 189.91L281.87 189.24Q281.87 187.68 281.07 186.83Q280.26 185.98 278.80 185.98Q277.34 185.98 276.53 186.83Q275.73 187.68 275.73 189.24" fill="white" fill-opacity="0.7"/>
<path d="M313.72 197.64L302.44 197.64L302.44 195.67L307.12 195.67L307.12 186.41L302.92 186.41L302.92 184.44L309.28 184.44L309.28 195.67L313.72 195.67L313.72 197.64M307.96 182.06Q307.17 182.06 306.71 181.66Q306.26 181.25 306.26 180.55Q306.26 179.83 306.71 179.41Q307.17 178.99 307.96 178.99Q308.75 178.99 309.21 179.41Q309.66 179.83 309.66 180.55Q309.66 181.25 309.21 181.66Q308.75 182.06 307.96 182.06" fill="white" fill-opacity="0.7"/>
<path d="M319.17 197.64L317.01 197.64L317.01 184.44L319.17 184.44L319.17 186.96L319.19 186.96Q319.36 185.64 320.27 184.92Q321.18 184.20 322.70 184.20Q324.69 184.20 325.86 185.42Q327.04 186.65 327.04 188.76L327.04 197.64L324.88 197.64L324.88 189.14Q324.88 187.63 324.12 186.83Q323.37 186.02 322.07 186.02Q320.73 186.02 319.95 186.86Q319.17 187.70 319.17 189.24" fill="white" fill-opacity="0.7"/>
<path d="M336.93 197.83L335.87 197.83Q333.66 197.83 332.45 196.84Q331.24 195.84 331.24 194.02L333.40 194.02Q333.40 194.93 334.05 195.44Q334.70 195.96 335.87 195.96L336.93 195.96Q338.13 195.96 338.79 195.43Q339.45 194.90 339.45 193.94Q339.45 192.24 337.89 192.02L334.24 191.50Q332.90 191.30 332.15 190.38Q331.41 189.46 331.41 187.94Q331.41 186.22 332.60 185.23Q333.78 184.25 335.87 184.25L336.93 184.25Q338.85 184.25 340.06 185.20Q341.27 186.14 341.37 187.68L339.18 187.68Q339.14 186.98 338.52 186.53Q337.91 186.07 336.93 186.07L335.87 186.07Q334.77 186.07 334.14 186.58Q333.52 187.08 333.52 187.94Q333.52 189.34 334.79 189.53L338.20 190.01Q341.56 190.49 341.56 193.94Q341.56 195.79 340.35 196.81Q339.14 197.83 336.93 197.83" fill="white" fill-opacity="0.7"/>
<path d="M350.78 197.88Q348.50 197.88 347.13 196.52Q345.76 195.17 345.76 192.84L345.76 184.44L347.92 184.44L347.92 192.84Q347.92 194.28 348.69 195.13Q349.46 195.98 350.78 195.98Q352.12 195.98 352.90 195.13Q353.68 194.28 353.68 192.84L353.68 184.44L355.84 184.44L355.84 192.84Q355.84 195.17 354.45 196.52Q353.06 197.88 350.78 197.88" fill="white" fill-opacity="0.7"/>
<path d="M362.85 197.64L360.69 197.64L360.69 184.44L362.85 184.44L362.85 186.96L362.90 186.96Q363.06 185.69 363.98 184.94Q364.89 184.20 366.42 184.20Q368.49 184.20 369.60 185.44Q370.72 186.67 370.72 188.95L370.72 190.08L368.56 190.08L368.56 188.95Q368.56 186.07 365.75 186.07Q364.34 186.07 363.59 186.89Q362.85 187.70 362.85 189.24" fill="white" fill-opacity="0.7"/>
<path d="M378.45 197.88Q376.41 197.88 375.21 196.74Q374.01 195.60 374.01 193.75Q374.01 192.53 374.56 191.62Q375.11 190.70 376.10 190.19Q377.08 189.67 378.35 189.67L382.43 189.67L382.43 188.64Q382.43 186.07 379.62 186.07Q378.38 186.07 377.61 186.53Q376.84 186.98 376.79 187.80L374.63 187.80Q374.75 186.24 376.08 185.22Q377.42 184.20 379.62 184.20Q382.02 184.20 383.31 185.35Q384.59 186.50 384.59 188.57L384.59 197.64L382.46 197.64L382.46 195.24L382.41 195.24Q382.22 196.46 381.18 197.17Q380.15 197.88 378.45 197.88M378.98 196.06Q380.56 196.06 381.50 195.29Q382.43 194.52 382.43 193.20L382.43 191.35L378.59 191.35Q377.54 191.35 376.88 191.99Q376.22 192.62 376.22 193.68Q376.22 194.78 376.95 195.42Q377.68 196.06 378.98 196.06" fill="white" fill-opacity="0.7"/>
<path d="M391.17 197.64L389.01 197.64L389.01 184.44L391.17 184.44L391.17 186.96L391.19 186.96Q391.36 185.64 392.27 184.92Q393.18 184.20 394.70 184.20Q396.69 184.20 397.86 185.42Q399.04 186.65 399.04 188.76L399.04 197.64L396.88 197.64L396.88 189.14Q396.88 187.63 396.12 186.83Q395.37 186.02 394.07 186.02Q392.73 186.02 391.95 186.86Q391.17 187.70 391.17 189.24" fill="white" fill-opacity="0.7"/>
<path d="M408.59 197.88Q406.19 197.88 404.75 196.54Q403.31 195.19 403.31 192.84L403.31 189.24Q403.31 186.89 404.75 185.54Q406.19 184.20 408.59 184.20Q410.87 184.20 412.28 185.42Q413.68 186.65 413.75 188.76L411.59 188.76Q411.52 187.49 410.73 186.80Q409.94 186.12 408.59 186.12Q407.18 186.12 406.32 186.92Q405.47 187.73 405.47 189.22L405.47 192.84Q405.47 194.33 406.32 195.14Q407.18 195.96 408.59 195.96Q409.94 195.96 410.73 195.26Q411.52 194.57 411.59 193.32L413.75 193.32Q413.68 195.43 412.28 196.66Q410.87 197.88 408.59 197.88" fill="white" fill-opacity="0.7"/>
<path d="M422.80 197.88Q420.47 197.88 419.04 196.48Q417.62 195.07 417.62 192.60L417.62 189.48Q417.62 187.01 419.04 185.60Q420.47 184.20 422.80 184.20Q424.36 184.20 425.52 184.82Q426.69 185.45 427.34 186.58Q427.98 187.70 427.98 189.24L427.98 191.59L419.73 191.59L419.73 192.84Q419.73 194.30 420.57 195.16Q421.41 196.01 422.80 196.01Q424 196.01 424.78 195.54Q425.56 195.07 425.73 194.28L427.89 194.28Q427.67 195.94 426.28 196.91Q424.89 197.88 422.80 197.88M419.73 189.24L419.73 189.91L425.87 189.91L425.87 189.24Q425.87 187.68 425.07 186.83Q424.26 185.98 422.80 185.98Q421.34 185.98 420.53 186.83Q419.73 187.68 419.73 189.24" fill="white" fill-opacity="0.7"/>
<path d="M448.77 201.96L446.61 201.96L446.61 184.44L448.77 184.44L448.77 186.96L448.79 186.96Q448.96 185.66 449.92 184.93Q450.88 184.20 452.37 184.20Q454.36 184.20 455.54 185.51Q456.71 186.82 456.71 189.10L456.71 192.96Q456.71 195.24 455.54 196.56Q454.36 197.88 452.37 197.88Q450.88 197.88 449.92 197.14Q448.96 196.39 448.79 195.12L448.72 195.12L448.77 198.12L448.77 201.96M451.65 196.01Q453.02 196.01 453.78 195.29Q454.55 194.57 454.55 192.96L454.55 189.12Q454.55 187.49 453.78 186.78Q453.02 186.07 451.65 186.07Q450.33 186.07 449.55 186.91Q448.77 187.75 448.77 189.24L448.77 192.84Q448.77 194.33 449.55 195.17Q450.33 196.01 451.65 196.01" fill="white" fill-opacity="0.7"/>
<path d="M466 197.83Q463.62 197.83 462.22 196.44Q460.82 195.05 460.82 192.55L460.82 189.53Q460.82 187.01 462.21 185.63Q463.60 184.25 466 184.25Q468.40 184.25 469.79 185.63Q471.18 187.01 471.18 189.53L471.18 192.55Q471.18 195.05 469.78 196.44Q468.38 197.83 466 197.83M466 195.91Q467.42 195.91 468.22 195.12Q469.02 194.33 469.02 192.79L469.02 189.29Q469.02 187.75 468.22 186.96Q467.42 186.17 466 186.17Q464.61 186.17 463.79 186.96Q462.98 187.75 462.98 189.29L462.98 192.79Q462.98 194.33 463.79 195.12Q464.61 195.91 466 195.91" fill="white" fill-opacity="0.7"/>
<path d="M486.40 197.64L482.32 197.64Q480.57 197.64 479.52 196.62Q478.48 195.60 478.48 193.92L478.48 182.09L473.92 182.09L473.92 180.12L480.64 180.12L480.64 193.92Q480.64 194.74 481.10 195.20Q481.55 195.67 482.32 195.67L486.40 195.67" fill="white" fill-opacity="0.7"/>
<path d="M500.92 197.64L489.64 197.64L489.64 195.67L494.32 195.67L494.32 186.41L490.12 186.41L490.12 184.44L496.48 184.44L496.48 195.67L500.92 195.67L500.92 197.64M495.16 182.06Q494.37 182.06 493.91 181.66Q493.46 181.25 493.46 180.55Q493.46 179.83 493.91 179.41Q494.37 178.99 495.16 178.99Q495.95 178.99 496.41 179.41Q496.86 179.83 496.86 180.55Q496.86 181.25 496.41 181.66Q495.95 182.06 495.16 182.06" fill="white" fill-opacity="0.7"/>
<path d="M509.39 197.88Q506.99 197.88 505.55 196.54Q504.11 195.19 504.11 192.84L504.11 189.24Q504.11 186.89 505.55 185.54Q506.99 184.20 509.39 184.20Q511.67 184.20 513.08 185.42Q514.48 186.65 514.55 188.76L512.39 188.76Q512.32 187.49 511.53 186.80Q510.74 186.12 509.39 186.12Q507.98 186.12 507.12 186.92Q506.27 187.73 506.27 189.22L506.27 192.84Q506.27 194.33 507.12 195.14Q507.98 195.96 509.39 195.96Q510.74 195.96 511.53 195.26Q512.32 194.57 512.39 193.32L514.55 193.32Q514.48 195.43 513.08 196.66Q511.67 197.88 509.39 197.88" fill="white" fill-opacity="0.7"/>
<path d="M529.72 197.64L518.44 197.64L518.44 195.67L523.12 195.67L523.12 186.41L518.92 186.41L518.92 184.44L525.28 184.44L525.28 195.67L529.72 195.67L529.72 197.64M523.96 182.06Q523.17 182.06 522.71 181.66Q522.26 181.25 522.26 180.55Q522.26 179.83 522.71 179.41Q523.17 178.99 523.96 178.99Q524.75 178.99 525.21 179.41Q525.66 179.83 525.66 180.55Q525.66 181.25 525.21 181.66Q524.75 182.06 523.96 182.06" fill="white" fill-opacity="0.7"/>
<path d="M538 197.88Q535.67 197.88 534.24 196.48Q532.82 195.07 532.82 192.60L532.82 189.48Q532.82 187.01 534.24 185.60Q535.67 184.20 538 184.20Q539.56 184.20 540.72 184.82Q541.89 185.45 542.54 186.58Q543.18 187.70 543.18 189.24L543.18 191.59L534.93 191.59L534.93 192.84Q534.93 194.30 535.77 195.16Q536.61 196.01 538 196.01Q539.20 196.01 539.98 195.54Q540.76 195.07 540.93 194.28L543.09 194.28Q542.87 195.94 541.48 196.91Q540.09 197.88 538 197.88M534.93 189.24L534.93 189.91L541.07 189.91L541.07 189.24Q541.07 187.68 540.27 186.83Q539.46 185.98 538 185.98Q536.54 185.98 535.73 186.83Q534.93 187.68 534.93 189.24" fill="white" fill-opacity="0.7"/>
<path d="M552.93 197.83L551.87 197.83Q549.66 197.83 548.45 196.84Q547.24 195.84 547.24 194.02L549.40 194.02Q549.40 194.93 550.05 195.44Q550.70 195.96 551.87 195.96L552.93 195.96Q554.13 195.96 554.79 195.43Q555.45 194.90 555.45 193.94Q555.45 192.24 553.89 192.02L550.24 191.50Q548.90 191.30 548.15 190.38Q547.41 189.46 547.41 187.94Q547.41 186.22 548.60 185.23Q549.78 184.25 551.87 184.25L552.93 184.25Q554.85 184.25 556.06 185.20Q557.27 186.14 557.37 187.68L555.18 187.68Q555.14 186.98 554.52 186.53Q553.91 186.07 552.93 186.07L551.87 186.07Q550.77 186.07 550.14 186.58Q549.52 187.08 549.52 187.94Q549.52 189.34 550.79 189.53L554.20 190.01Q557.56 190.49 557.56 193.94Q557.56 195.79 556.35 196.81Q555.14 197.83 552.93 197.83" fill="white" fill-opacity="0.7"/>
<path d="M580.05 197.88Q578.01 197.88 576.81 196.74Q575.61 195.60 575.61 193.75Q575.61 192.53 576.16 191.62Q576.71 190.70 577.70 190.19Q578.68 189.67 579.95 189.67L584.03 189.67L584.03 188.64Q584.03 186.07 581.22 186.07Q579.98 186.07 579.21 186.53Q578.44 186.98 578.39 187.80L576.23 187.80Q576.35 186.24 577.68 185.22Q579.02 184.20 581.22 184.20Q583.62 184.20 584.91 185.35Q586.19 186.50 586.19 188.57L586.19 197.64L584.06 197.64L584.06 195.24L584.01 195.24Q583.82 196.46 582.78 197.17Q581.75 197.88 580.05 197.88M580.58 196.06Q582.16 196.06 583.10 195.29Q584.03 194.52 584.03 193.20L584.03 191.35L580.19 191.35Q579.14 191.35 578.48 191.99Q577.82 192.62 577.82 193.68Q577.82 194.78 578.55 195.42Q579.28 196.06 580.58 196.06" fill="white" fill-opacity="0.7"/>
<path d="M595.79 197.88Q593.39 197.88 591.95 196.54Q590.51 195.19 590.51 192.84L590.51 189.24Q590.51 186.89 591.95 185.54Q593.39 184.20 595.79 184.20Q598.07 184.20 599.48 185.42Q600.88 186.65 600.95 188.76L598.79 188.76Q598.72 187.49 597.93 186.80Q597.14 186.12 595.79 186.12Q594.38 186.12 593.52 186.92Q592.67 187.73 592.67 189.22L592.67 192.84Q592.67 194.33 593.52 195.14Q594.38 195.96 595.79 195.96Q597.14 195.96 597.93 195.26Q598.72 194.57 598.79 193.32L600.95 193.32Q600.88 195.43 599.48 196.66Q598.07 197.88 595.79 197.88" fill="white" fill-opacity="0.7"/>
<path d="M610.19 197.88Q607.79 197.88 606.35 196.54Q604.91 195.19 604.91 192.84L604.91 189.24Q604.91 186.89 606.35 185.54Q607.79 184.20 610.19 184.20Q612.47 184.20 613.88 185.42Q615.28 186.65 615.35 188.76L613.19 188.76Q613.12 187.49 612.33 186.80Q611.54 186.12 610.19 186.12Q608.78 186.12 607.92 186.92Q607.07 187.73 607.07 189.22L607.07 192.84Q607.07 194.33 607.92 195.14Q608.78 195.96 610.19 195.96Q611.54 195.96 612.33 195.26Q613.12 194.57 613.19 193.32L615.35 193.32Q615.28 195.43 613.88 196.66Q612.47 197.88 610.19 197.88" fill="white" fill-opacity="0.7"/>
<path d="M624.40 197.88Q622.07 197.88 620.64 196.48Q619.22 195.07 619.22 192.60L619.22 189.48Q619.22 187.01 620.64 185.60Q622.07 184.20 624.40 184.20Q625.96 184.20 627.12 184.82Q628.29 185.45 628.94 186.58Q629.58 187.70 629.58 189.24L629.58 191.59L621.33 191.59L621.33 192.84Q621.33 194.30 622.17 195.16Q623.01 196.01 624.40 196.01Q625.60 196.01 626.38 195.54Q627.16 195.07 627.33 194.28L629.49 194.28Q629.27 195.94 627.88 196.91Q626.49 197.88 624.40 197.88M621.33 189.24L621.33 189.91L627.47 189.91L627.47 189.24Q627.47 187.68 626.67 186.83Q625.86 185.98 624.40 185.98Q622.94 185.98 622.13 186.83Q621.33 187.68 621.33 189.24" fill="white" fill-opacity="0.7"/>
<path d="M639.33 197.83L638.27 197.83Q636.06 197.83 634.85 196.84Q633.64 195.84 633.64 194.02L635.80 194.02Q635.80 194.93 636.45 195.44Q637.10 195.96 638.27 195.96L639.33 195.96Q640.53 195.96 641.19 195.43Q641.85 194.90 641.85 193.94Q641.85 192.24 640.29 192.02L636.64 191.50Q635.30 191.30 634.55 190.38Q633.81 189.46 633.81 187.94Q633.81 186.22 635 185.23Q636.18 184.25 638.27 184.25L639.33 184.25Q641.25 184.25 642.46 185.20Q643.67 186.14 643.77 187.68L641.58 187.68Q641.54 186.98 640.92 186.53Q640.31 186.07 639.33 186.07L638.27 186.07Q637.17 186.07 636.54 186.58Q635.92 187.08 635.92 187.94Q635.92 189.34 637.19 189.53L640.60 190.01Q643.96 190.49 643.96 193.94Q643.96 195.79 642.75 196.81Q641.54 197.83 639.33 197.83" fill="white" fill-opacity="0.7"/>
<path d="M653.73 197.83L652.67 197.83Q650.46 197.83 649.25 196.84Q648.04 195.84 648.04 194.02L650.20 194.02Q650.20 194.93 650.85 195.44Q651.50 195.96 652.67 195.96L653.73 195.96Q654.93 195.96 655.59 195.43Q656.25 194.90 656.25 193.94Q656.25 192.24 654.69 192.02L651.04 191.50Q649.70 191.30 648.95 190.38Q648.21 189.46 648.21 187.94Q648.21 186.22 649.40 185.23Q650.58 184.25 652.67 184.25L653.73 184.25Q655.65 184.25 656.86 185.20Q658.07 186.14 658.17 187.68L655.98 187.68Q655.94 186.98 655.32 186.53Q654.71 186.07 653.73 186.07L652.67 186.07Q651.57 186.07 650.94 186.58Q650.32 187.08 650.32 187.94Q650.32 189.34 651.59 189.53L655 190.01Q658.36 190.49 658.36 193.94Q658.36 195.79 657.15 196.81Q655.94 197.83 653.73 197.83" fill="white" fill-opacity="0.7"/>
<path d="M673.72 197.64L662.44 197.64L662.44 195.67L667.12 195.67L667.12 186.41L662.92 186.41L662.92 184.44L669.28 184.44L669.28 195.67L673.72 195.67L673.72 197.64M667.96 182.06Q667.17 182.06 666.71 181.66Q666.26 181.25 666.26 180.55Q666.26 179.83 666.71 179.41Q667.17 178.99 667.96 178.99Q668.75 178.99 669.21 179.41Q669.66 179.83 669.66 180.55Q669.66 181.25 669.21 181.66Q668.75 182.06 667.96 182.06" fill="white" fill-opacity="0.7"/>
<path d="M682.77 197.88Q681.28 197.88 680.32 197.15Q679.36 196.42 679.19 195.12L679.17 195.12L679.17 197.64L677.01 197.64L677.01 180.12L679.17 180.12L679.17 183.96L679.12 186.96L679.14 186.96Q679.34 185.69 680.31 184.94Q681.28 184.20 682.77 184.20Q684.76 184.20 685.94 185.52Q687.11 186.84 687.11 189.12L687.11 192.98Q687.11 195.24 685.94 196.56Q684.76 197.88 682.77 197.88M682.05 196.01Q683.42 196.01 684.18 195.29Q684.95 194.57 684.95 192.96L684.95 189.12Q684.95 187.49 684.18 186.78Q683.42 186.07 682.05 186.07Q680.73 186.07 679.95 186.91Q679.17 187.75 679.17 189.24L679.17 192.84Q679.17 194.33 679.95 195.17Q680.73 196.01 682.05 196.01" fill="white" fill-opacity="0.7"/>
<path d="M702.40 197.64L698.32 197.64Q696.57 197.64 695.52 196.62Q694.48 195.60 694.48 193.92L694.48 182.09L689.92 182.09L689.92 180.12L696.64 180.12L696.64 193.92Q696.64 194.74 697.10 195.20Q697.55 195.67 698.32 195.67L702.40 195.67" fill="white" fill-opacity="0.7"/>
<path d="M710.80 197.88Q708.47 197.88 707.04 196.48Q705.62 195.07 705.62 192.60L705.62 189.48Q705.62 187.01 707.04 185.60Q708.47 184.20 710.80 184.20Q712.36 184.20 713.52 184.82Q714.69 185.45 715.34 186.58Q715.98 187.70 715.98 189.24L715.98 191.59L707.73 191.59L707.73 192.84Q707.73 194.30 708.57 195.16Q709.41 196.01 710.80 196.01Q712 196.01 712.78 195.54Q713.56 195.07 713.73 194.28L715.89 194.28Q715.67 195.94 714.28 196.91Q712.89 197.88 710.80 197.88M707.73 189.24L707.73 189.91L713.87 189.91L713.87 189.24Q713.87 187.68 713.07 186.83Q712.26 185.98 710.80 185.98Q709.34 185.98 708.53 186.83Q707.73 187.68 707.73 189.24" fill="white" fill-opacity="0.7"/>
<path d="M741.02 197.64L738.18 197.64L733.70 184.44L736.02 184.44L738.90 193.32Q739.17 194.11 739.36 194.84Q739.55 195.58 739.65 195.98Q739.77 195.58 739.94 194.84Q740.10 194.11 740.34 193.32L743.22 184.44L745.50 184.44" fill="white" fill-opacity="0.7"/>
<path d="M760.12 197.64L748.84 197.64L748.84 195.67L753.52 195.67L753.52 186.41L749.32 186.41L749.32 184.44L755.68 184.44L755.68 195.67L760.12 195.67L760.12 197.64M754.36 182.06Q753.57 182.06 753.11 181.66Q752.66 181.25 752.66 180.55Q752.66 179.83 753.11 179.41Q753.57 178.99 754.36 178.99Q755.15 178.99 755.61 179.41Q756.06 179.83 756.06 180.55Q756.06 181.25 755.61 181.66Q755.15 182.06 754.36 182.06" fill="white" fill-opacity="0.7"/>
<path d="M767.25 197.88Q765.21 197.88 764.01 196.74Q762.81 195.60 762.81 193.75Q762.81 192.53 763.36 191.62Q763.91 190.70 764.90 190.19Q765.88 189.67 767.15 189.67L771.23 189.67L771.23 188.64Q771.23 186.07 768.42 186.07Q767.18 186.07 766.41 186.53Q765.64 186.98 765.59 187.80L763.43 187.80Q763.55 186.24 764.88 185.22Q766.22 184.20 768.42 184.20Q770.82 184.20 772.11 185.35Q773.39 186.50 773.39 188.57L773.39 197.64L771.26 197.64L771.26 195.24L771.21 195.24Q771.02 196.46 769.98 197.17Q768.95 197.88 767.25 197.88M767.78 196.06Q769.36 196.06 770.30 195.29Q771.23 194.52 771.23 193.20L771.23 191.35L767.39 191.35Q766.34 191.35 765.68 191.99Q765.02 192.62 765.02 193.68Q765.02 194.78 765.75 195.42Q766.48 196.06 767.78 196.06" fill="white" fill-opacity="0.7"/>
<path d="M796.74 197.64L792.21 197.64L792.21 180.12L796.74 180.12Q798.45 180.12 799.68 180.77Q800.92 181.42 801.60 182.59Q802.29 183.77 802.29 185.38L802.29 192.36Q802.29 193.97 801.60 195.16Q800.92 196.34 799.68 196.99Q798.45 197.64 796.74 197.64M794.37 182.04L794.37 195.72L796.74 195.72Q798.33 195.72 799.23 194.83Q800.13 193.94 800.13 192.36L800.13 185.38Q800.13 183.82 799.23 182.93Q798.33 182.04 796.74 182.04" fill="white" fill-opacity="0.7"/>
<path d="M817.72 197.64L806.44 197.64L806.44 195.67L811.12 195.67L811.12 186.41L806.92 186.41L806.92 184.44L813.28 184.44L813.28 195.67L817.72 195.67L817.72 197.64M811.96 182.06Q811.17 182.06 810.71 181.66Q810.26 181.25 810.26 180.55Q810.26 179.83 810.71 179.41Q811.17 178.99 811.96 178.99Q812.75 178.99 813.21 179.41Q813.66 179.83 813.66 180.55Q813.66 181.25 813.21 181.66Q812.75 182.06 811.96 182.06" fill="white" fill-opacity="0.7"/>
<path d="M826.36 201.96L822.66 201.96L822.66 199.99L826.38 199.99Q827.51 199.99 828.16 199.36Q828.81 198.72 828.81 197.64L828.81 196.44L828.86 194.28L828.78 194.28Q828.59 195.46 827.66 196.09Q826.72 196.73 825.30 196.73Q823.26 196.73 822.09 195.43Q820.91 194.14 820.91 191.88L820.91 189.10Q820.91 186.84 822.09 185.52Q823.26 184.20 825.30 184.20Q826.72 184.20 827.66 184.87Q828.59 185.54 828.78 186.72L828.83 186.72L828.83 184.44L830.97 184.44L830.97 197.64Q830.97 199.63 829.73 200.80Q828.50 201.96 826.36 201.96M825.95 194.93Q827.30 194.93 828.06 194.09Q828.83 193.25 828.83 191.76L828.83 189.24Q828.83 187.75 828.06 186.91Q827.30 186.07 825.95 186.07Q824.58 186.07 823.83 186.86Q823.07 187.66 823.07 189L823.07 192Q823.07 193.34 823.83 194.14Q824.58 194.93 825.95 194.93" fill="white" fill-opacity="0.7"/>
<path d="M846.52 197.64L835.24 197.64L835.24 195.67L839.92 195.67L839.92 186.41L835.72 186.41L835.72 184.44L842.08 184.44L842.08 195.67L846.52 195.67L846.52 197.64M840.76 182.06Q839.97 182.06 839.51 181.66Q839.06 181.25 839.06 180.55Q839.06 179.83 839.51 179.41Q839.97 178.99 840.76 178.99Q841.55 178.99 842.01 179.41Q842.46 179.83 842.46 180.55Q842.46 181.25 842.01 181.66Q841.55 182.06 840.76 182.06" fill="white" fill-opacity="0.7"/>
<path d="M860.80 197.64L850.72 197.64L850.72 180.12L852.88 180.12L852.88 195.67L860.80 195.67" fill="white" fill-opacity="0.7"/>
<path d="M869.20 197.83Q866.82 197.83 865.42 196.44Q864.02 195.05 864.02 192.55L864.02 189.53Q864.02 187.01 865.41 185.63Q866.80 184.25 869.20 184.25Q871.60 184.25 872.99 185.63Q874.38 187.01 874.38 189.53L874.38 192.55Q874.38 195.05 872.98 196.44Q871.58 197.83 869.20 197.83M869.20 195.91Q870.62 195.91 871.42 195.12Q872.22 194.33 872.22 192.79L872.22 189.29Q872.22 187.75 871.42 186.96Q870.62 186.17 869.20 186.17Q867.81 186.17 866.99 186.96Q866.18 187.75 866.18 189.29L866.18 192.79Q866.18 194.33 866.99 195.12Q867.81 195.91 869.20 195.91" fill="white" fill-opacity="0.7"/>
<path d="M883.79 197.88Q881.39 197.88 879.95 196.54Q878.51 195.19 878.51 192.84L878.51 189.24Q878.51 186.89 879.95 185.54Q881.39 184.20 883.79 184.20Q886.07 184.20 887.48 185.42Q888.88 186.65 888.95 188.76L886.79 188.76Q886.72 187.49 885.93 186.80Q885.14 186.12 883.79 186.12Q882.38 186.12 881.52 186.92Q880.67 187.73 880.67 189.22L880.67 192.84Q880.67 194.33 881.52 195.14Q882.38 195.96 883.79 195.96Q885.14 195.96 885.93 195.26Q886.72 194.57 886.79 193.32L888.95 193.32Q888.88 195.43 887.48 196.66Q886.07 197.88 883.79 197.88" fill="white" fill-opacity="0.7"/>
<path d="M895.29 197.64L893.13 197.64L893.13 180.12L895.29 180.12L895.29 189.89L897.81 189.89L901.50 184.44L903.98 184.44L899.73 190.73L904.22 197.64L901.70 197.64L897.86 191.76L895.29 191.76" fill="white" fill-opacity="0.7"/>
<path d="M912.40 197.88Q910.07 197.88 908.64 196.48Q907.22 195.07 907.22 192.60L907.22 189.48Q907.22 187.01 908.64 185.60Q910.07 184.20 912.40 184.20Q913.96 184.20 915.12 184.82Q916.29 185.45 916.94 186.58Q917.58 187.70 917.58 189.24L917.58 191.59L909.33 191.59L909.33 192.84Q909.33 194.30 910.17 195.16Q911.01 196.01 912.40 196.01Q913.60 196.01 914.38 195.54Q915.16 195.07 915.33 194.28L917.49 194.28Q917.27 195.94 915.88 196.91Q914.49 197.88 912.40 197.88M909.33 189.24L909.33 189.91L915.47 189.91L915.47 189.24Q915.47 187.68 914.67 186.83Q913.86 185.98 912.40 185.98Q910.94 185.98 910.13 186.83Q909.33 187.68 909.33 189.24" fill="white" fill-opacity="0.7"/>
<path d="M924.45 197.64L922.29 197.64L922.29 184.44L924.45 184.44L924.45 186.96L924.50 186.96Q924.66 185.69 925.58 184.94Q926.49 184.20 928.02 184.20Q930.09 184.20 931.20 185.44Q932.32 186.67 932.32 188.95L932.32 190.08L930.16 190.08L930.16 188.95Q930.16 186.07 927.35 186.07Q925.94 186.07 925.19 186.89Q924.45 187.70 924.45 189.24" fill="white" fill-opacity="0.7"/>
<path d="M941.20 197.88Q940.31 197.88 939.77 197.35Q939.23 196.82 939.23 195.98Q939.23 195.10 939.77 194.54Q940.31 193.99 941.20 193.99Q942.09 193.99 942.63 194.54Q943.17 195.10 943.17 195.98Q943.17 196.82 942.63 197.35Q942.09 197.88 941.20 197.88" fill="white" fill-opacity="0.7"/>
<path d="M76.11 136.06L66.42 136.06L84.56 65.98L97.14 65.98L115.18 136.06L105.49 136.06L101.07 117.82L80.53 117.82L76.11 136.06M87.54 88.92L82.45 109.95L99.15 109.95L94.16 89.02Q92.72 83.26 91.86 79.23Q90.99 75.20 90.80 73.76Q90.61 75.20 89.74 79.23Q88.88 83.26 87.54 88.92M137.55 136.06L128.05 136.06L128.05 65.98L150.80 65.98Q157.52 65.98 162.42 68.57Q167.31 71.16 170 75.82Q172.69 80.48 172.69 86.91Q172.69 93.24 170 97.90Q167.31 102.56 162.37 105.15Q157.42 107.74 150.80 107.74L137.55 107.74L137.55 136.06M137.55 74.43L137.55 99.29L150.80 99.29Q156.37 99.29 159.63 95.88Q162.90 92.48 162.90 86.91Q162.90 81.24 159.63 77.84Q156.37 74.43 150.80 74.43L137.55 74.43M225.10 136.06L186.90 136.06L186.90 127.42L201.20 127.42L201.20 74.62L186.90 74.62L186.90 65.98L225.10 65.98L225.10 74.62L210.80 74.62L210.80 127.42L225.10 127.42L225.10 136.06M263.98 137.02Q253.62 137.02 247.47 131.60Q241.33 126.17 241.33 116.67L250.83 116.67Q250.83 122.24 254.38 125.40Q257.94 128.57 263.98 128.57Q269.74 128.57 273.15 125.36Q276.56 122.14 276.56 116.76Q276.56 112.73 274.35 109.71Q272.14 106.68 268.11 105.63L257.74 102.84Q250.93 100.92 246.94 95.88Q242.96 90.84 242.96 83.93Q242.96 78.27 245.50 74Q248.05 69.72 252.66 67.37Q257.26 65.02 263.31 65.02Q269.46 65.02 274.11 67.37Q278.77 69.72 281.36 73.95Q283.95 78.17 283.95 83.74L274.54 83.74Q274.54 79.13 271.42 76.25Q268.30 73.37 263.31 73.37Q258.32 73.37 255.30 76.25Q252.27 79.13 252.27 83.74Q252.27 87.48 254.29 90.03Q256.30 92.57 259.95 93.63L270.61 96.51Q277.81 98.43 281.84 103.85Q285.87 109.28 285.87 116.76Q285.87 122.91 283.18 127.47Q280.50 132.03 275.55 134.52Q270.61 137.02 263.98 137.02M342.51 136.06L301.71 136.06L301.71 65.98L342.51 65.98L342.51 74.52L311.12 74.52L311.12 95.36L339.15 95.36L339.15 103.61L311.12 103.61L311.12 127.52L342.51 127.52L342.51 136.06M383.60 136.06L374.10 136.06L374.10 74.62L355.09 74.62L355.09 65.98L402.51 65.98L402.51 74.62L383.60 74.62L383.60 136.06M436.40 137.02Q426.51 137.02 421.18 131.55Q415.86 126.08 415.86 116.67L415.86 65.98L425.36 65.98L425.36 116.67Q425.36 122.24 428.10 125.40Q430.83 128.57 436.40 128.57Q441.87 128.57 444.70 125.40Q447.54 122.24 447.54 116.67L447.54 65.98L457.04 65.98L457.04 116.67Q457.04 126.17 451.71 131.60Q446.38 137.02 436.40 137.02M551.98 137.02Q542.29 137.02 536.58 131.60Q530.86 126.17 530.86 116.67L530.86 85.28Q530.86 75.87 536.58 70.44Q542.29 65.02 551.98 65.02Q561.58 65.02 567.30 70.49Q573.01 75.96 573.01 85.28L563.50 85.28Q563.50 79.61 560.43 76.54Q557.36 73.47 551.98 73.47Q546.51 73.47 543.44 76.54Q540.37 79.61 540.37 85.28L540.37 116.67Q540.37 122.43 543.44 125.50Q546.51 128.57 551.98 128.57Q557.36 128.57 560.43 125.50Q563.50 122.43 563.50 116.67L563.50 107.55L549.87 107.55L549.87 99.10L573.01 99.10L573.01 116.67Q573.01 126.08 567.30 131.55Q561.58 137.02 551.98 137.02M609.20 137.02Q599.60 137.02 594.03 131.45Q588.46 125.88 588.46 115.71L588.46 86.24Q588.46 76.16 594.03 70.59Q599.60 65.02 609.20 65.02Q618.80 65.02 624.37 70.54Q629.94 76.06 629.94 86.24L629.94 115.71Q629.94 125.88 624.37 131.45Q618.80 137.02 609.20 137.02M609.20 128.57Q614.58 128.57 617.50 125.50Q620.43 122.43 620.43 116.67L620.43 85.28Q620.43 79.61 617.55 76.54Q614.67 73.47 609.20 73.47Q603.73 73.47 600.85 76.54Q597.97 79.61 597.97 85.28L597.97 116.67Q597.97 122.43 600.90 125.50Q603.82 128.57 609.20 128.57M673.14 136.06L660.37 136.06L642.42 65.98L652.21 65.98L663.82 113.21Q664.98 117.72 665.79 121.90Q666.61 126.08 666.99 128.28Q667.28 126.08 668.19 121.85Q669.10 117.63 670.16 113.12L681.39 65.98L691.18 65.98L673.14 136.06M782.38 137.02Q772.69 137.02 766.98 131.60Q761.26 126.17 761.26 116.67L761.26 85.28Q761.26 75.87 766.98 70.44Q772.69 65.02 782.38 65.02Q791.98 65.02 797.70 70.49Q803.41 75.96 803.41 85.28L793.90 85.28Q793.90 79.61 790.83 76.54Q787.76 73.47 782.38 73.47Q776.91 73.47 773.84 76.54Q770.77 79.61 770.77 85.28L770.77 116.67Q770.77 122.43 773.84 125.50Q776.91 128.57 782.38 128.57Q787.76 128.57 790.83 125.50Q793.90 122.43 793.90 116.67L793.90 107.55L780.27 107.55L780.27 99.10L803.41 99.10L803.41 116.67Q803.41 126.08 797.70 131.55Q791.98 137.02 782.38 137.02M839.60 137.02QNaN 137.02 824.43 131.45Q818.86 125.88 818.86 115.71L818.86 86.24Q818.86 76.16 824.43 70.59QNaN 65.02 839.60 65.02Q849.20 65.02 854.77 70.54Q860.34 76.06 860.34 86.24L860.34 115.71Q860.34 125.88 854.77 131.45Q849.20 137.02 839.60 137.02M839.60 128.57Q844.98 128.57 847.90 125.50Q850.83 122.43 850.83 116.67L850.83 85.28Q850.83 79.61 847.95 76.54Q845.07 73.47 839.60 73.47Q834.13 73.47 831.25 76.54Q828.37 79.61 828.37 85.28L828.37 116.67Q828.37 122.43 831.30 125.50Q834.22 128.57 839.60 128.57M895.66 136.06L876.85 136.06L876.85 65.98L895.66 65.98Q902.48 65.98 907.52 68.62Q912.56 71.26 915.34 76.01Q918.13 80.76 918.13 87.20L918.13 114.75Q918.13 121.18 915.34 125.98Q912.56 130.78 907.52 133.42Q902.48 136.06 895.66 136.06M886.35 74.43L886.35 127.61L895.66 127.61Q901.71 127.61 905.17 124.16Q908.62 120.70 908.62 114.75L908.62 87.20Q908.62 81.24 905.17 77.84Q901.71 74.43 895.66 74.43L886.35 74.43M973.90 136.06L935.70 136.06L935.70 127.42LNaN 127.42LNaN 74.62L935.70 74.62L935.70 65.98L973.90 65.98L973.90 74.62L959.60 74.62L959.60 127.42L973.90 127.42L973.90 136.06M1012.78 137.02Q1003.09 137.02 997.38 131.60Q991.66 126.17 991.66 116.67L991.66 85.28Q991.66 75.87 997.38 70.44Q1003.09 65.02 1012.78 65.02Q1022.38 65.02 1028.10 70.49Q1033.81 75.96 1033.81 85.28L1024.30 85.28Q1024.30 79.61 1021.23 76.54Q1018.16 73.47 1012.78 73.47Q1007.31 73.47 1004.24 76.54Q1001.17 79.61 1001.17 85.28L1001.17 116.67Q1001.17 122.43 1004.24 125.50Q1007.31 128.57 1012.78 128.57Q1018.16 128.57 1021.23 125.50Q1024.30 122.43 1024.30 116.67L1024.30 107.55L1010.67 107.55L1010.67 99.10L1033.81 99.10L1033.81 116.67Q1033.81 126.08 1028.10 131.55Q1022.38 137.02 1012.78 137.02M1089.10 136.06L1050.90 136.06L1050.90 127.42L1065.20 127.42L1065.20 74.62L1050.90 74.62L1050.90 65.98L1089.10 65.98L1089.10 74.62L1074.80 74.62L1074.80 127.42L1089.10 127.42L1089.10 136.06M1132.40 136.06L1122.90 136.06L1122.90 74.62L1103.89 74.62L1103.89 65.98L1151.31 65.98L1151.31 74.62L1132.40 74.62" fill="url(#paint2_linear_0_1)"/>
<g id="Group 1">
<rect id="Rectangle 1" x="26" y="168" width="12" height="184" rx="5" fill="url(#paint3_linear_0_1)" fill-opacity="0.9"/>
</g>
<g id="Group 1_2">
<rect id="Rectangle 2" x="26" y="38" width="12" height="119" rx="5" fill="url(#paint4_linear_0_1)" fill-opacity="0.9"/>
</g>
<ellipse id="Ellipse 1" cx="148.5" cy="573" rx="215.5" ry="214" fill="url(#paint5_linear_0_1)" fill-opacity="0.4"/>
<rect id="Rectangle 3" x="1229" y="48" width="300" height="300" rx="25" fill="#FFFBFB" fill-opacity="0.9"/>
<g id="placeholder-logo"><g transform="translate(1229,48) translate(0.0,60.0) scale(1.2000)"><g fill="#666666">
  <path d="m88.05,27.65c-3.15,4 -3.2,51.2 -0.05,54.35c2.75,2.75 71.7,3.15 74.45,0.45c2.85,-2.9 2.3,-53.85 -0.65,-55.9c-1.95,-1.35 -7.15,-1.55 -36.95,-1.55l-34.7,0l-2.1,2.65zm69.45,3.35c0.65,0 1,8.6 1,23.75l0,23.75l-33,0l-33,0l-0.25,-23c-0.15,-12.6 -0.1,-23.45 0.15,-24.1c0.35,-0.85 8.9,-1.05 32.25,-0.75c17.55,0.2 32.3,0.35 32.85,0.35z"/>
  <path d="m99.15,37.3c-6.85,7.35 4.25,17.35 11.4,10.25c1.35,-1.35 2.45,-3.65 2.45,-5.05c0,-6.45 -9.35,-9.95 -13.85,-5.2z"/>
  <path d="m135,42.5c-0.7,0.85 -5.25,5.15 -10.1,9.6l-8.85,8.1l-3.2,-3.2l-3.15,-3.15l-6.35,6.3c-5.55,5.5 -6.35,6.75 -6.35,10.05l0,3.8l28.5,0l28.5,0l0,-8.6l0,-8.55l-8.15,-7.7c-9.35,-8.85 -9.15,-8.7 -10.85,-6.65zm7.25,15.2c0.95,0.9 1.75,2.9 1.75,4.45c6.35,-5.05 4.75,-7.15 4.9,-11.55c0.95,0 0,0 0,0l-6.65,7.1z"/>
  <path d="m53.65,110.75c0.1,4.8 0.45,8.65 0.75,8.5c0.35,-0.15 1.3,-0.25 2.1,-0.25c1.1,0 1.5,-1.2 1.5,-4.75l0,-4.75l3.25,5c4.9,7.5 6.2,6.75 6.55,-3.75c0.25,-8.15 0.15,-8.75 -1.7,-8.75c-1.65,0 -2.05,0.8 -2.3,4.75l-0.3,4.75l-2.8,-4.75c-4.85,-8.25 -7.25,-6.9 -7.05,4z"/>
  <path d="m91,108.9c0,9.65 0.3,10.1 6.1,10.1c5.8,0 7.15,-2.65 1.65,-3.2l-3.25,-0.3l-0.3,-6.75c-0.25,-5.95 -0.55,-6.75 -2.25,-6.75c-1.75,0 -1.95,0.7 -1.95,6.9z"/>
  <path d="m151,102.45c0,0.25 1,2.15 2.25,4.2c1.2,2.1 2.45,5.8 2.75,8.25c0.65,5.9 4,6.95 4,1.25c0.05,-2.1 1.25,-5.85 2.95,-8.9l2.9,-5.25l-2.5,0c-1.8,0 -2.8,0.85 -3.75,3.1l-1.3,3.05l-1.25,-3.05c-1.1,-2.6 -6.05,-4.8 -6.05,-2.65z"/>
  <path d="m191,107.45c0,9.05 3.4,8.85 4.25,-0.2c0.45,-5 0.35,-5.25 -1.9,-5.25c-2.2,0 -2.35,0.4 -2.35,5.45z"/>
  <path d="m180.8,104.75c-1.3,5.35 0.65,13.6 3.45,14.35c2.3,0.6 2.75,0.4 2.75,-1.2c0,-1.05 -0.45,-1.9 -1,-1.9c-0.55,0 -1,-1.6 -1,-3.5c0,-1.95 0.45,-3.5 1,-3.5c0.55,0 1,-0.7 1,-1.5c0,-0.85 -0.45,-1.5 -1,-1.5c-0.55,0 -1,-0.7 -1,-1.5c0,-2.1 -3.65,-1.9 -4.2,0.25z"/>
  <path d="m71.55,106.55c-2.2,2.25 -2.05,9.7 0.3,11.8c4.5,4.1 10.15,0.75 10.15,-6.1c0,-4.85 -2,-7.25 -6,-7.25c-1.55,0 -3.55,0.7 -4.45,1.55zm6.25,5.8c0.25,3.05 0,3.65 -1.6,3.65c-2.3,0 -3.25,-2.65 -2.05,-5.85c1.25,-3.35 3.3,-2.1 3.65,2.2z"/>
  <path d="m105.75,106.1c-2.5,1.45 -2.45,9.95 0.1,12.25c4.3,3.9 10.15,0.35 10.15,-6.2c0,-6 -5.15,-9.05 -10.25,-6.05zm6.05,6.25c0.25,3.05 0,3.65 -1.6,3.65c-2.3,0 -3.25,-2.65 -2.05,-5.85c1.25,-3.35 3.3,-2.1 3.65,2.2z"/>
  <path d="m119.2,106.2c-3.8,3.8 -0.4,12.55 4.4,11.35c1.9,-0.45 2.45,-0.3 2.15,0.65c-0.25,0.7 -1.55,1.2 -2.85,1.1c-4.05,-0.3 -5.35,0.45 -3.85,2.25c0.85,1.05 2.6,1.45 5.35,1.25l4.1,-0.3l0.3,-8.75l0.3,-8.75l-4.35,0c-2.4,0 -4.9,0.55 -5.55,1.2zm6.6,4.45c0.4,2.85 -2.15,4.85 -3.75,2.95c-0.9,-1.1 -0.9,-2 -0.05,-3.6c1.35,-2.5 3.4,-2.15 3.8,0.65z"/>
  <path d="m133.55,106.55c-2.2,2.25 -2.05,9.7 0.3,11.8c4.5,4.1 10.15,0.75 10.15,-6.1c0,-4.85 -2,-7.25 -6,-7.25c-1.55,0 -3.55,0.7 -4.45,1.55zm6.25,5.8c0.25,3.05 0,3.65 -1.6,3.65c-2.3,0 -3.25,-2.65 -2.05,-5.85c1.25,-3.35 3.3,-2.1 3.65,2.2z"/>
  <path d="m167.65,106.85c-3.9,4.3 -0.75,13.15 4.7,13.15c2.4,0 5.65,-2.75 5.65,-4.85c0,-1.4 -2.65,-1.55 -3.5,-0.15c-0.95,1.55 -4.5,1.15 -4.5,-0.5c0,-1.1 1.1,-1.5 4,-1.5c3.15,0 4,-0.35 4,-1.8c0,-5.3 -6.85,-8.25 -10.35,-4.35z"/>
  <path d="m191,117.5c0,2.15 0.4,2.6 2.25,2.3c1.5,-0.2 2.25,-1 2.25,-2.3c0,-1.3 -0.75,-2.1 -2.25,-2.3c-1.85,-0.3 -2.25,0.15 -2.25,2.3z"/>
 </g></g></g>
</g>
<defs>
<linearGradient id="paint0_linear_0_1" x1="0" y1="198" x2="1584" y2="198" gradientUnits="userSpaceOnUse">
<stop stop-color="#3D052C"/>
<stop offset="1"/>
</linearGradient>
<linearGradient id="paint1_linear_0_1" x1="323" y1="-224" x2="323" y2="352" gradientUnits="userSpaceOnUse">
<stop stop-color="#28F6F2" stop-opacity="0.4"/>
<stop offset="1" stop-color="#17908E" stop-opacity="0.7"/>
</linearGradient>
<linearGradient id="paint2_linear_0_1" x1="148.5" y1="38" x2="148.5" y2="140" gradientUnits="userSpaceOnUse">
<stop stop-color="white"/>
<stop offset="1" stop-color="#999999"/>
</linearGradient>
<linearGradient id="paint3_linear_0_1" x1="38" y1="260" x2="26" y2="260" gradientUnits="userSpaceOnUse">
<stop stop-color="#D9D9D9"/>
<stop offset="1" stop-color="#737373"/>
</linearGradient>
<linearGradient id="paint4_linear_0_1" x1="38" y1="97.5" x2="26" y2="97.5" gradientUnits="userSpaceOnUse">
<stop stop-color="#D9D9D9"/>
<stop offset="1" stop-color="#737373"/>
</linearGradient>
<linearGradient id="paint5_linear_0_1" x1="27.5" y1="434.5" x2="148.5" y2="787" gradientUnits="userSpaceOnUse">
<stop stop-color="#2E21BC"/>
<stop offset="1" stop-color="#150F56"/>
</linearGradient>
<clipPath id="clip0_0_1">
<rect width="1584" height="396" fill="white"/>
</clipPath>
</defs>
</svg>
